<svg width="32" height="32" viewBox="0 0 32 32" fill="none" xmlns="http://www.w3.org/2000/svg">
<g id="Huge-icon/finance and payment/solid/card-withdraw">
<path id="card withdraw" fill-rule="evenodd" clip-rule="evenodd" d="M14.0405 7.51183L15 8.47139L15 3.66666C15 3.11437 15.4478 2.66666 16 2.66666C16.5523 2.66666 17 3.11437 17 3.66666L17 8.47139L17.9596 7.51183C18.3501 7.12131 18.9833 7.12131 19.3738 7.51183C19.7643 7.90236 19.7643 8.53552 19.3738 8.92605L17.65 10.6499C16.7387 11.5611 15.2613 11.5611 14.3501 10.6499L12.6263 8.92605C12.2357 8.53552 12.2357 7.90236 12.6263 7.51183C13.0168 7.12131 13.65 7.12131 14.0405 7.51183ZM8.00004 14.3333C6.52728 14.3333 5.33337 15.5272 5.33337 17C5.33337 18.4727 6.52728 19.6667 8.00004 19.6667C6.52728 19.6667 5.33337 20.8606 5.33337 22.3333C5.33337 23.8061 6.52728 25 8.00004 25H14C14 21.3136 16.7182 18.2656 20.2601 17.7449C20.6115 17.6933 20.9699 17.6667 21.3334 17.6667C21.7494 17.6667 22.1574 17.7013 22.5545 17.7679C22.6275 17.5247 22.6667 17.2669 22.6667 17C22.6667 15.5272 21.4728 14.3333 20 14.3333H8.00004ZM26.6667 25C26.6667 22.0545 24.2789 19.6667 21.3334 19.6667C21.0676 19.6667 20.8063 19.6861 20.551 19.7236C17.9764 20.1021 16 22.3203 16 25C16 27.9455 18.3879 30.3333 21.3334 30.3333C24.2789 30.3333 26.6667 27.9455 26.6667 25Z" fill="#FFC040"/>
</g>
</svg>
