<svg width="40" height="40" viewBox="0 0 40 40" fill="none" xmlns="http://www.w3.org/2000/svg">
<rect width="40" height="40" rx="6" fill="#8962F8"/>
<path fill-rule="evenodd" clip-rule="evenodd" d="M20.75 9.75C20.75 9.33579 20.4143 9 20 9C19.5858 9 19.25 9.33579 19.25 9.75V10.75C19.25 11.1642 19.5858 11.5 20 11.5C20.4143 11.5 20.75 11.1642 20.75 10.75V9.75ZM17.8515 13.75C17.1569 13.75 16.5532 14.2269 16.3923 14.9026L15.4399 18.9026C15.2155 19.8451 15.9302 20.75 16.8991 20.75H12.8515C12.1569 20.75 11.5532 21.2269 11.3923 21.9026L10.4399 25.9026C10.2155 26.8451 10.9302 27.75 11.8991 27.75H18.101C19.0699 27.75 19.7846 26.8451 19.5602 25.9026L18.6078 21.9026C18.4469 21.2269 17.8432 20.75 17.1486 20.75H22.8515C22.1569 20.75 21.5532 21.2269 21.3923 21.9026L20.4399 25.9026C20.2155 26.8451 20.9302 27.75 21.8991 27.75H28.101C29.0699 27.75 29.7846 26.8451 29.5602 25.9026L28.6078 21.9026C28.4469 21.2269 27.8432 20.75 27.1486 20.75H23.101C24.0699 20.75 24.7846 19.8451 24.5602 18.9026L23.6078 14.9026C23.4469 14.2269 22.8432 13.75 22.1486 13.75H17.8515ZM26.5304 11.2803L25.5304 12.2803C25.2375 12.5732 24.7626 12.5732 24.4697 12.2803C24.1768 11.9874 24.1768 11.5126 24.4697 11.2197L25.4697 10.2197C25.7626 9.92678 26.2375 9.92678 26.5304 10.2197C26.8233 10.5126 26.8233 10.9874 26.5304 11.2803ZM14.5304 10.2197C14.2375 9.92678 13.7626 9.92678 13.4697 10.2197C13.1768 10.5126 13.1768 10.9874 13.4697 11.2803L14.4697 12.2803C14.7626 12.5732 15.2375 12.5732 15.5304 12.2803C15.8233 11.9874 15.8233 11.5126 15.5304 11.2197L14.5304 10.2197Z" fill="white"/>
</svg>
