<svg width="28" height="22" viewBox="0 0 28 22" fill="none" xmlns="http://www.w3.org/2000/svg">
<g id="money minus">
<path id="Combo shape" fill-rule="evenodd" clip-rule="evenodd" d="M4.66675 0.333344H23.3334C25.5426 0.333344 27.3334 2.1242 27.3334 4.33334V12.6667C27.3334 13.219 26.8857 13.6667 26.3334 13.6667H20.6668C18.4576 13.6667 16.6667 15.4575 16.6667 17.6667V20.6667C16.6667 21.219 16.219 21.6667 15.6667 21.6667H4.66675C2.45761 21.6667 0.666748 19.8758 0.666748 17.6667V4.33335C0.666748 2.12421 2.45761 0.333344 4.66675 0.333344ZM6.00008 4.33334C6.73646 4.33334 7.33341 4.9303 7.33341 5.66668C7.33341 6.40306 6.73646 7.00001 6.00008 7.00001C5.2637 7.00001 4.66675 6.40306 4.66675 5.66668C4.66675 4.9303 5.2637 4.33334 6.00008 4.33334ZM16.6667 11C16.6667 9.52725 15.4728 8.33334 14.0001 8.33334C12.5273 8.33334 11.3334 9.52725 11.3334 11C11.3334 12.4728 12.5273 13.6667 14.0001 13.6667C15.4728 13.6667 16.6667 12.4728 16.6667 11ZM26.0001 18.4167C26.4143 18.4167 26.7501 18.0809 26.7501 17.6667C26.7501 17.2525 26.4143 16.9167 26.0001 16.9167H20.6667C20.2525 16.9167 19.9167 17.2525 19.9167 17.6667C19.9167 18.0809 20.2525 18.4167 20.6667 18.4167H26.0001Z" fill="#FF5630"/>
</g>
</svg>
